<svg width="60" height="60" viewBox="0 0 60 60" fill="none" xmlns="http://www.w3.org/2000/svg">
<path d="M23.6357 22.5C25.1489 20.6677 27.4381 19.5 30 19.5C32.562 19.5 34.851 20.6677 36.3642 22.5C37.5423 23.9264 38.25 25.7556 38.25 27.75C38.25 32.2359 34.6695 35.8857 30.2106 35.9973C30.1407 35.9991 30.0705 36 30 36C29.9296 36 29.8594 35.9991 29.7895 35.9973C25.3304 35.8857 21.75 32.2359 21.75 27.75C21.75 25.7556 22.4577 23.9264 23.6357 22.5Z" fill="#CD4E5E"/>
<path d="M41.2499 27.75C41.2499 25.8539 40.7807 24.0673 39.9524 22.5H52.4999C54.9851 22.5 56.9999 24.5147 56.9999 27V28.5C56.9999 33.2622 53.3831 38.1357 47.0552 39.8535C45.7739 37.5549 43.3184 36 40.4999 36H37.6484C39.8636 33.9453 41.2499 31.0095 41.2499 27.75Z" fill="#CD4E5E"/>
<path d="M40.5 39C41.796 39 42.9642 39.5478 43.7853 40.4247C44.5386 41.2293 45 42.3108 45 43.5V45C45 50.9142 39.4215 57 30 57C20.5785 57 15 50.9142 15 45V43.5C15 42.3108 15.4613 41.2293 16.2147 40.4247C17.0358 39.5478 18.2039 39 19.5 39H40.5Z" fill="#CD4E5E"/>
<path d="M3 28.5C3 33.2622 6.61689 38.1357 12.9446 39.8535C14.226 37.5549 16.6814 36 19.5 36H22.3514C20.1363 33.9453 18.75 31.0095 18.75 27.75C18.75 25.8539 19.2191 24.0673 20.0476 22.5H7.5C5.01471 22.5 3 24.5147 3 27V28.5Z" fill="#CD4E5E"/>
<path d="M26.25 11.25C26.25 6.69366 22.5563 3 18 3C13.4437 3 9.75 6.69366 9.75 11.25C9.75 15.8063 13.4437 19.5 18 19.5C22.5563 19.5 26.25 15.8063 26.25 11.25Z" fill="#CD4E5E"/>
<path d="M50.25 11.25C50.25 6.69366 46.5564 3 42 3C37.4436 3 33.75 6.69366 33.75 11.25C33.75 15.8063 37.4436 19.5 42 19.5C46.5564 19.5 50.25 15.8063 50.25 11.25Z" fill="#CD4E5E"/>
</svg>
