<svg width="60" height="60" viewBox="0 0 60 60" fill="none" xmlns="http://www.w3.org/2000/svg">
<path d="M30 3.75C24.8083 3.75 19.7331 5.28954 15.4163 8.17392C11.0995 11.0583 7.73497 15.158 5.74817 19.9546C3.76137 24.7511 3.24154 30.0291 4.2544 35.1211C5.26726 40.2131 7.76733 44.8904 11.4385 48.5616C15.1096 52.2327 19.7869 54.7327 24.8789 55.7456C29.9709 56.7585 35.2489 56.2386 40.0455 54.2518C44.842 52.265 48.9417 48.9005 51.8261 44.5837C54.7105 40.2669 56.25 35.1918 56.25 30C56.25 23.0381 53.4844 16.3613 48.5616 11.4384C43.6387 6.51562 36.9619 3.75 30 3.75ZM30 52.5C25.5499 52.5 21.1998 51.1804 17.4997 48.7081C13.7996 46.2357 10.9157 42.7217 9.21272 38.6104C7.50975 34.499 7.06418 29.975 7.93234 25.6105C8.80051 21.2459 10.9434 17.2368 14.0901 14.0901C17.2368 10.9434 21.2459 8.8005 25.6105 7.93233C29.9751 7.06416 34.4991 7.50974 38.6104 9.21271C42.7217 10.9157 46.2357 13.7996 48.7081 17.4997C51.1804 21.1998 52.5 25.5499 52.5 30C52.5 35.9674 50.1295 41.6903 45.9099 45.9099C41.6903 50.1295 35.9674 52.5 30 52.5ZM27.6938 29.4C27.788 29.6394 27.8319 29.8955 27.8229 30.1526C27.8138 30.4097 27.752 30.6621 27.6412 30.8943C27.5304 31.1264 27.373 31.3333 27.1788 31.502C26.9847 31.6707 26.7579 31.7977 26.5125 31.875C26.3181 31.9349 26.116 31.9665 25.9125 31.9687C25.5036 31.9901 25.099 31.877 24.7604 31.6468C24.4219 31.4166 24.168 31.0818 24.0375 30.6938C23.7676 29.9823 23.2877 29.3697 22.6614 28.9374C22.0352 28.5052 21.2922 28.2737 20.5313 28.2737C19.7703 28.2737 19.0274 28.5052 18.4011 28.9374C17.7748 29.3697 17.2949 29.9823 17.025 30.6938C16.8659 31.1662 16.5256 31.556 16.079 31.7775C15.6325 31.9991 15.1162 32.0341 14.6438 31.875C14.1713 31.7159 13.7815 31.3756 13.56 30.929C13.3384 30.4825 13.3034 29.9662 13.4625 29.4937C13.9805 28.0331 14.9382 26.7687 16.204 25.8746C17.4698 24.9804 18.9815 24.5003 20.5313 24.5003C22.081 24.5003 23.5928 24.9804 24.8586 25.8746C26.1244 26.7687 27.0821 28.0331 27.6 29.4937L27.6938 29.4ZM45.2625 31.875C45.0681 31.9349 44.866 31.9665 44.6625 31.9687C44.2694 31.9698 43.886 31.8472 43.5663 31.6184C43.2467 31.3896 43.007 31.0662 42.8813 30.6938C42.6114 29.9823 42.1314 29.3697 41.5052 28.9374C40.8789 28.5052 40.136 28.2737 39.375 28.2737C38.6141 28.2737 37.8711 28.5052 37.2448 28.9374C36.6186 29.3697 36.1386 29.9823 35.8688 30.6938C35.7096 31.1662 35.3694 31.556 34.9228 31.7775C34.4762 31.9991 33.9599 32.0341 33.4875 31.875C33.0151 31.7159 32.6252 31.3756 32.4037 30.929C32.1822 30.4825 32.1471 29.9662 32.3063 29.4937C32.8242 28.0331 33.7819 26.7687 35.0477 25.8746C36.3135 24.9804 37.8252 24.5003 39.375 24.5003C40.9248 24.5003 42.4365 24.9804 43.7023 25.8746C44.9681 26.7687 45.9258 28.0331 46.4438 29.4937C46.5232 29.7276 46.5556 29.9749 46.5392 30.2214C46.5227 30.4678 46.4578 30.7086 46.348 30.9299C46.2383 31.1511 46.0859 31.3485 45.8996 31.5107C45.7133 31.6729 45.4968 31.7967 45.2625 31.875Z" fill="#9FD5EC"/>
</svg>
